<svg width="1318" height="813" viewBox="0 0 1318 813" fill="none" xmlns="http://www.w3.org/2000/svg">
<path fill-rule="evenodd" clip-rule="evenodd" d="M195.773 488.82C196.002 525.412 213.37 607.856 256.752 664.586C277.871 692.203 332.877 732.478 388.138 743.017C443.398 753.556 475.891 744.494 524.264 725.086C597.597 695.666 668.177 667.861 687.385 550.349C702.572 457.435 681.426 408.158 646.456 369.218C602.29 320.038 596.821 314.36 526.053 258.415C476.33 219.107 400.014 192.925 342.5 216C284.986 239.075 242.224 334.15 221.947 369.797C201.671 405.444 195.544 452.229 195.773 488.82Z" fill="#E73A2D"/>
<path fill-rule="evenodd" clip-rule="evenodd" d="M948.555 130.094C923.452 128.304 865.423 135.074 822.753 159.886C801.981 171.965 769.577 205.101 757.535 239.975C745.493 274.848 748.872 296.162 757.958 328.206C771.732 376.783 784.638 423.511 863.517 442.049C925.884 456.706 961.506 445.757 991.248 425.396C1028.81 399.682 1033.18 396.476 1077.7 354.064C1108.98 324.264 1133.58 276.718 1122.78 238.619C1111.97 200.52 1050.53 168.068 1027.86 153.179C1005.19 138.291 973.657 131.885 948.555 130.094Z" fill="#E73A2D"/>
<path d="M910.702 261.436C912.708 286.93 911.532 312.586 908.15 337.944C889.71 476.174 828.492 354.738 852.012 237.208" stroke="black" stroke-opacity="0.9" stroke-width="32" stroke-linecap="round" stroke-linejoin="round"/>
<path d="M826.928 219.096C805.594 205.14 659.378 102.082 648.792 154.991C637.286 212.48 754.598 269.316 784.826 307.08C851.172 389.966 837.26 534.38 800.136 627.142" stroke="black" stroke-opacity="0.9" stroke-width="32" stroke-linecap="round" stroke-linejoin="round"/>
<path d="M940.486 345.334C996.464 427.322 1032.42 517.866 1051.48 613.114" stroke="black" stroke-opacity="0.9" stroke-width="32" stroke-linecap="round" stroke-linejoin="round"/>
<path d="M943.034 504.726C917.486 481.392 852.592 500.014 867.758 540.432C877.56 566.55 904.57 592.718 925.172 610.564C932.496 616.908 941.554 623.488 950.69 627.142C952.818 627.992 958.688 628.074 957.07 629.692C953.398 633.36 862.218 605.936 857.552 624.592C855.43 633.076 924.486 653.526 932.828 655.196C976.19 663.862 1027.89 662.416 1065.52 637.342C1073.87 631.776 1076.55 618.94 1083.38 614.392C1084.22 613.83 1155.86 661.714 1188 642.444" stroke="black" stroke-opacity="0.9" stroke-width="32" stroke-linecap="round" stroke-linejoin="round"/>
<path d="M808.75 231.862C807.566 235.604 804.562 238.512 802.09 241.476" stroke="black" stroke-opacity="0.9" stroke-width="32" stroke-linecap="round" stroke-linejoin="round"/>
<path d="M662.902 153.493C616.62 147.561 702.17 191.712 665.988 155.548" stroke="black" stroke-opacity="0.9" stroke-width="32" stroke-linecap="round" stroke-linejoin="round"/>
<path d="M490.4 268.578C588.24 147.971 438.05 164.435 416.252 153.526C408.592 149.698 401.056 112.741 384.01 121.275C357.76 134.407 359.99 202.766 357.142 225.57C355.596 237.982 338.266 255.754 332.57 268.578C323.478 289.042 313.488 313.384 296.786 338.804C280.086 364.226 245.184 383.934 227.714 403.362C153.364 486.004 185.241 583.158 266.87 645.984C349.432 709.528 694.262 685.812 596.798 539.538" stroke="black" stroke-opacity="0.9" stroke-width="32" stroke-linecap="round" stroke-linejoin="round"/>
<path d="M451.806 324.566C476.036 413.254 441.254 505.872 441.254 592.714C441.254 602.708 461.086 593.064 470.802 594.85" stroke="black" stroke-opacity="0.9" stroke-width="32" stroke-linecap="round" stroke-linejoin="round"/>
<path d="M325.334 417.758C344.838 420.63 362.638 434.948 376.444 448.332C445.164 514.962 357.376 559.74 352.514 583.294C351.416 588.622 374.07 592.29 378.62 592.778" stroke="black" stroke-opacity="0.9" stroke-width="32" stroke-linecap="round" stroke-linejoin="round"/>
<path d="M423.072 125.988C436.322 113.559 438.85 135.314 441.254 147.276" stroke="black" stroke-opacity="0.9" stroke-width="32" stroke-linecap="round" stroke-linejoin="round"/>
</svg>
