<svg width="891" height="800" viewBox="0 0 891 800" fill="none" xmlns="http://www.w3.org/2000/svg">
<path fill-rule="evenodd" clip-rule="evenodd" d="M794.506 256.34C780.009 236.188 737.736 199.592 690.724 190.837C667.838 186.576 620.657 193.013 585.007 216.056C549.357 239.099 511.973 298.555 511.973 298.555L637.483 357.543L663.246 371.812C663.246 371.812 673.653 378.364 677.072 381.411C680.872 384.797 682.625 387.969 682.907 389.14C684 393.673 683.918 396.993 678.98 401.68C664.908 410.126 650.836 418.572 650.836 418.572L506.552 517.223C506.552 517.223 654.768 570.273 689.328 557.745C741.167 538.953 763.947 520.923 787.685 478.08C811.424 435.237 823.289 390.55 825.56 351.49C823.127 321.144 809.003 276.492 794.506 256.34Z" fill="#E73A2D"/>
<path opacity="0.503384" d="M326.748 249.112C293.892 270.44 132.02 366.152 128.043 374.792C124.067 383.43 395.03 552.27 435.018 540.648C462.42 532.686 604.616 434.544 645.192 409.776C646.808 408.794 672.282 396.056 671.946 395.53C656.518 371.996 399.538 264.366 359.872 242.63" stroke="black" stroke-opacity="0.9" stroke-width="28" stroke-linecap="round" stroke-linejoin="round"/>
<path d="M204.924 390.768C142.835 423.998 132.972 411.742 138.636 491.456" stroke="black" stroke-opacity="0.9" stroke-width="32" stroke-linecap="round" stroke-linejoin="round"/>
<path d="M273.824 427.802C192.523 452.98 218.05 438.986 226.388 520.39" stroke="black" stroke-opacity="0.9" stroke-width="32" stroke-linecap="round" stroke-linejoin="round"/>
<path d="M337.24 451.776C320.812 458.9 304.072 467.334 300.936 470.474C288.296 483.122 296.332 554.622 296.332 546.354" stroke="black" stroke-opacity="0.9" stroke-width="32" stroke-linecap="round" stroke-linejoin="round"/>
<path d="M407.11 483.746C369.182 503.872 366.136 506.538 372.658 546.032C374.854 559.348 372.658 575.188 372.658 582.884" stroke="black" stroke-opacity="0.9" stroke-width="32" stroke-linecap="round" stroke-linejoin="round"/>
<path d="M470.55 477.238C528.826 492.614 523.73 497.636 523.73 557.424" stroke="black" stroke-opacity="0.9" stroke-width="32" stroke-linecap="round" stroke-linejoin="round"/>
<path d="M541.266 448.634C599.514 459.7 592.782 478.364 592.782 525.018" stroke="black" stroke-opacity="0.9" stroke-width="32" stroke-linecap="round" stroke-linejoin="round"/>
<path d="M593.382 412.9C600.318 416.652 645.688 430.604 656.916 441.998C664.698 449.894 656.916 513.646 656.916 505.84" stroke="black" stroke-opacity="0.9" stroke-width="32" stroke-linecap="round" stroke-linejoin="round"/>
<path d="M598.872 351.418C656.786 306.05 636.884 294.214 648.796 367.622" stroke="black" stroke-opacity="0.9" stroke-width="32" stroke-linecap="round" stroke-linejoin="round"/>
<path d="M533.066 305.052C567.338 263.674 565.454 290.424 565.454 330.588" stroke="black" stroke-opacity="0.9" stroke-width="32" stroke-linecap="round" stroke-linejoin="round"/>
<path d="M445.11 276.586C496.868 229.424 485.774 248.74 485.774 298.182" stroke="black" stroke-opacity="0.9" stroke-width="32" stroke-linecap="round" stroke-linejoin="round"/>
<path d="M380.298 243.236C401.228 211.51 420.424 198.446 420.424 254.912" stroke="black" stroke-opacity="0.9" stroke-width="32" stroke-linecap="round" stroke-linejoin="round"/>
<path d="M165.034 316.052C121.124 287.9 128.037 306.946 136.881 351.418" stroke="black" stroke-opacity="0.9" stroke-width="32" stroke-linecap="round" stroke-linejoin="round"/>
<path d="M246.048 290.542C199.274 280.54 180.299 225.998 184.004 297.156C184.673 309.95 182.699 324.886 190.213 332.902" stroke="black" stroke-opacity="0.9" stroke-width="32" stroke-linecap="round" stroke-linejoin="round"/>
<path d="M287.71 244.27C232.192 191.331 241.542 255.36 250.642 291.238" stroke="black" stroke-opacity="0.9" stroke-width="32" stroke-linecap="round" stroke-linejoin="round"/>
</svg>
