<svg width="800" height="800" viewBox="0 0 800 800" fill="none" xmlns="http://www.w3.org/2000/svg">
<path fill-rule="evenodd" clip-rule="evenodd" d="M361.443 191.25C331.235 168.674 278.245 156.225 226.242 173.993C159.722 196.723 109.802 248.978 109.651 322.402C109.628 333.952 110.713 344.52 112.82 354.157C152.961 290.91 256.465 226.924 361.443 191.25ZM141.371 405.497C168.805 348.762 273.183 269.887 393.408 235.336C403.768 263.512 401.935 296.098 389.973 330.213C376.053 369.913 352.633 399.925 322.278 418.215C290.59 428.04 259.475 435.005 230.862 438.147C193.641 435.257 162.683 425.075 141.371 405.497ZM495.407 337.747C497.96 334.427 500.84 331.05 504.082 327.61C523.507 307.005 545.785 290.312 569.23 280.245C568.15 281.337 567.053 282.432 565.938 283.525C539.12 306.742 521.785 320.317 495.407 337.747ZM477.887 416.972C546.74 379.377 602.92 329.172 636.125 271.5C649.812 274.085 663.37 279.605 676.492 288.555C719.187 317.675 734.425 358.833 732.31 412.228C729.832 474.715 690.14 518.977 641.765 564.542C583.067 619.832 554.413 644.135 478.035 664.782C432.243 677.162 397.415 676.5 366.405 654.368C354.495 645.868 344.415 634.397 338.388 620.35C340.18 612.322 344.153 605.435 353.56 599.905C355.81 598.58 355.623 593.66 353.488 592.25C344.92 586.587 340.103 575.207 336.448 564.23C338.058 558.855 340.17 553.315 342.84 547.617C354.083 523.61 371.9 515.777 391.583 510.297C383.723 519.98 379.193 532.278 379.91 546.22C381.033 568.02 394.158 584.112 412.145 592.327C419.385 595.635 427.415 597.667 435.765 598.28C440.625 598.637 445.41 598.38 450.03 597.57C475.517 593.097 496.1 571.775 497.685 543.615C499.352 513.99 476.885 492.392 449.845 488.342C454.018 485.26 458.058 481.635 461.913 477.32C480.19 456.867 479.605 437.44 477.887 416.972ZM507.603 474.185C516.293 466.17 522.802 454.548 526.682 443.45C527.537 441.003 531.08 440.925 531.87 443.397C535.6 455.075 540.4 467.857 549.495 474.13C551.665 475.627 551.937 480.855 549.68 482.202C535.582 490.625 533.892 502.158 533.29 516.048C533.175 518.723 530.367 519.245 529.487 516.73C525.37 504.99 518.698 486.932 508.32 480.122C506.49 478.922 505.983 475.68 507.603 474.185Z" fill="#E73A2D"/>
<path d="M97.3208 389.518C127.077 259.363 487.838 101.878 605.607 186.478M97.3208 389.518L133.979 484.45C134.308 485.3 135.07 485.89 135.967 485.985C228.089 495.633 322.623 481.338 406.013 449.863M97.3208 389.518C104.241 407.378 117.163 419.993 134.513 428.148M605.607 186.478C606.197 187.799 606.723 189.134 607.183 190.481M605.607 186.478L607.183 190.481M406.013 449.863C411.98 463.643 428.328 469.253 435.765 467.608C443.205 465.965 453.078 438.975 450.03 431.165M406.013 449.863C397.813 435.995 406.838 414.593 422.13 411.643C435.008 409.158 444.445 416.848 450.03 431.165M134.513 428.148C141.951 343.963 401.053 166.955 603.96 232.031M134.513 428.148C209.78 463.53 368.368 414.98 481.635 346.683C516.36 324.505 534.728 310.545 565.938 283.525C583.685 266.143 596.905 248.706 603.96 232.031M607.183 190.481C611.588 203.376 610.145 217.41 603.96 232.031M607.183 190.481L637.398 267.348C637.678 268.058 637.622 268.868 637.24 269.545C599.877 335.66 532.347 392.093 450.03 431.165M610.568 264.57L611.808 277.585M600.65 291.903L590.733 303.615M477.918 198.191L496.513 195.588M508.91 183.874H528.745M155.588 467.608H167.985M192.78 467.608H203.937M588.252 488.098L590.733 516.73M577.095 506.485L604.367 492.003M449.335 554.028C439.005 553.19 431.74 542.668 433.22 531.903C434.238 524.493 437.758 519.515 444.378 516.73C456.69 511.553 472.74 531.223 466.693 543.615C463.133 550.91 457.12 554.66 449.335 554.028ZM449.335 554.028C439.308 571.898 431.665 580.608 412.145 592.328M449.335 554.028C452.163 570.173 452.958 579.49 450.03 597.57M412.145 592.328C394.158 584.113 381.033 568.02 379.91 546.22C378.293 514.755 403.398 491.66 433.22 488.098C466.928 484.07 499.688 508.063 497.685 543.615C496.1 571.775 475.518 593.098 450.03 597.57M412.145 592.328C419.385 595.635 427.415 597.668 435.765 598.28C440.625 598.638 445.408 598.38 450.03 597.57M526.683 443.45C522.803 454.548 516.293 466.17 507.603 474.185C505.983 475.68 506.49 478.923 508.318 480.123C518.698 486.933 525.37 504.99 529.485 516.73C530.368 519.245 533.175 518.723 533.29 516.048C533.892 502.158 535.582 490.625 549.68 482.203C551.937 480.855 551.665 475.628 549.495 474.13C540.4 467.858 535.598 455.075 531.87 443.398C531.08 440.925 527.538 441.003 526.683 443.45ZM353.56 599.905C339.233 608.33 337.51 619.898 336.903 633.85C336.788 636.473 333.953 637.038 333.093 634.588C328.948 622.76 322.208 604.523 311.695 597.833C309.913 596.7 309.463 593.648 311.063 592.183C319.808 584.183 326.36 572.523 330.265 561.385C331.115 558.965 334.698 558.81 335.468 561.218C339.248 573.068 344.133 586.068 353.488 592.25C355.623 593.66 355.81 598.58 353.56 599.905Z" stroke="black" stroke-width="12.5" stroke-linecap="round"/>
</svg>
