<?xml version="1.0" encoding="utf-8"?><!-- Uploaded to: SVG Repo, www.svgrepo.com, Generator: SVG Repo Mixer Tools -->
<svg width="800px" height="800px" viewBox="0 0 400 400" fill="none" xmlns="http://www.w3.org/2000/svg">
<path d="M203.649 130.718C202.646 143.465 203.234 156.293 204.925 168.972C214.145 238.087 244.754 177.369 232.994 118.604" stroke="#000000" stroke-opacity="0.9" stroke-width="16" stroke-linecap="round" stroke-linejoin="round"/>
<path d="M245.536 109.548C256.203 102.57 329.311 51.0408 334.604 77.4954C340.357 106.24 281.701 134.658 266.587 153.54C233.414 194.983 240.37 267.19 258.932 313.571" stroke="#000000" stroke-opacity="0.9" stroke-width="16" stroke-linecap="round" stroke-linejoin="round"/>
<path d="M188.757 172.667C160.768 213.661 142.788 258.933 133.258 306.557" stroke="#000000" stroke-opacity="0.9" stroke-width="16" stroke-linecap="round" stroke-linejoin="round"/>
<path d="M187.483 252.363C200.257 240.696 232.704 250.007 225.121 270.216C220.22 283.275 206.715 296.359 196.414 305.282C192.752 308.454 188.223 311.744 183.655 313.571C182.591 313.996 179.656 314.037 180.465 314.846C182.301 316.68 227.891 302.968 230.224 312.296C231.285 316.538 196.757 326.763 192.586 327.598C170.905 331.931 145.057 331.208 126.242 318.671C122.064 315.888 120.725 309.47 117.31 307.196C116.889 306.915 81.0682 330.857 65 321.222" stroke="#000000" stroke-opacity="0.9" stroke-width="16" stroke-linecap="round" stroke-linejoin="round"/>
<path d="M254.625 115.931C255.217 117.802 256.719 119.256 257.955 120.738" stroke="#000000" stroke-opacity="0.9" stroke-width="16" stroke-linecap="round" stroke-linejoin="round"/>
<path d="M327.549 76.7464C350.69 73.7804 307.915 95.8559 326.006 77.7741" stroke="#000000" stroke-opacity="0.9" stroke-width="16" stroke-linecap="round" stroke-linejoin="round"/>
</svg>