<svg width="800" height="800" viewBox="0 0 800 800" fill="none" xmlns="http://www.w3.org/2000/svg">
<path fill-rule="evenodd" clip-rule="evenodd" d="M100.393 227.5C85.2428 257.5 68.7751 330.623 90.3936 391.25C100.918 420.765 117.281 443.203 135.13 461.338L137.283 355L138.75 282.5L232.5 235L657.5 330V402.5V552.13C697.58 514.745 718.518 481.28 722.893 425C728.098 358.062 701.675 296.25 676.643 247.5C642.095 180.219 586.643 145.076 539.143 123.75C491.643 102.424 415.393 87.5 345.393 87.5C275.393 87.5 214.143 116.25 177.893 138.75C141.644 161.25 115.544 197.5 100.393 227.5Z" fill="#E73A2D"/>
<path d="M232.5 235L138.75 282.5M232.5 235L657.5 330M232.5 235V304.69M138.75 282.5L137.283 355M138.75 282.5L232.5 304.69M657.5 330L561.25 382.5M657.5 330V402.5M232.5 304.69L561.25 382.5M137.283 355L561.25 456.25M137.283 355L134.246 505M561.25 716.25L134.339 591.785C133.254 591.47 132.516 590.465 132.539 589.335L134.246 505M561.25 716.25L656.488 645.75C657.125 645.277 657.5 644.533 657.5 643.74V566.25M561.25 716.25V625M134.246 505L218.816 528.768M657.5 566.25V402.5M657.5 566.25L561.25 625M561.25 625V456.25M561.25 625L355.633 567.215M561.25 382.5V456.25M657.5 402.5L561.25 456.25M355.633 567.215C379.02 545.195 411.215 477.24 428.75 424.608M355.633 567.215C306.713 613.275 255.535 596.82 246.205 536.463M218.816 528.768C232.004 575.763 269.528 592.728 313.375 555.34M218.816 528.768C209.06 493.998 214.573 437.027 238.75 379.232M395 416.548C371.74 467.115 335.738 536.273 313.375 555.34M313.375 555.34L246.205 536.463M276.25 388.187C255.763 436.367 241.652 507.018 246.205 536.463M156.25 473.75V485M152.5 561.25V575M538.75 482.5V495M517.5 507.5V521.25M538.75 521.25V533.75M628.75 622.5L640 616.25M621.25 647.5L631.25 642.5M318.313 325L318.68 309.228C318.718 307.673 320.148 306.53 321.67 306.833L347.783 312.057C349.043 312.307 349.905 313.473 349.78 314.75L348.093 332.048M436.25 352.915L438.388 336.533C438.58 335.05 440.023 334.068 441.473 334.43L471.583 341.958C472.818 342.268 473.623 343.453 473.455 344.715L471.25 361.198" stroke="black" stroke-width="12.5" stroke-linecap="round"/>
</svg>
